HIERARCHY
ROOT Hips
{
	OFFSET -3.958830 18.904000 13.208200
	CHANNELS 6 Xposition Yposition Zposition Zrotation Yrotation Xrotation 
	JOINT LHipJoint
	{
		OFFSET 0.000000 0.000000 0.000000
		CHANNELS 3 Zrotation Yrotation Xrotation
		JOINT LeftUpLeg
		{
			OFFSET 1.800000 -1.400000 0.085000
			CHANNELS 3 Zrotation Yrotation Xrotation
			JOINT LeftLeg
			{
				OFFSET 2.215000 -6.000000 0.000000
				CHANNELS 3 Zrotation Yrotation Xrotation
				JOINT LeftFoot
				{
					OFFSET 2.500000 -6.900000 0.000000
					CHANNELS 3 Zrotation Yrotation Xrotation
					JOINT LeftToeBase
					{
						OFFSET 0.200000 -0.500000 1.950000
						CHANNELS 3 Zrotation Yrotation Xrotation
						End Site
						{
							OFFSET 0.000000 0.000000 0.000000
						}
					}
				}
			}
		}
	}
	JOINT RHipJoint
	{
		OFFSET 0.000000 0.000000 0.000000
		CHANNELS 3 Zrotation Yrotation Xrotation
		JOINT RightUpLeg
		{
			OFFSET -1.800000 -1.400000 0.085000
			CHANNELS 3 Zrotation Yrotation Xrotation
			JOINT RightLeg
			{
				OFFSET -2.215000 -6.000000 0.000000
				CHANNELS 3 Zrotation Yrotation Xrotation
				JOINT RightFoot
				{
					OFFSET -2.500000 -6.900000 0.000000
					CHANNELS 3 Zrotation Yrotation Xrotation
					JOINT RightToeBase
					{
						OFFSET -0.200000 -0.500000 1.950000
						CHANNELS 3 Zrotation Yrotation Xrotation
						End Site
						{
							OFFSET 0.000000 0.000000 0.000000
						}
					}
				}
			}
		}
	}
	JOINT LowerBack
	{
		OFFSET 0.000000 0.000000 0.000000
		CHANNELS 3 Zrotation Yrotation Xrotation
		JOINT Spine
		{
			OFFSET -0.087000 1.940000 -0.288900
			CHANNELS 3 Zrotation Yrotation Xrotation
			JOINT Spine1
			{
				OFFSET 0.000000 1.950000 0.060000
				CHANNELS 3 Zrotation Yrotation Xrotation
				JOINT Neck
				{
					OFFSET 0.000000 0.000000 0.000000
					CHANNELS 3 Zrotation Yrotation Xrotation
					JOINT Neck1
					{
						OFFSET 0.000000 1.600000 0.340000
						CHANNELS 3 Zrotation Yrotation Xrotation
						JOINT Head
						{
							OFFSET 0.000000 1.667000 -0.240000
							CHANNELS 3 Zrotation Yrotation Xrotation
							End Site
							{
								OFFSET 0.000000 0.000000 0.000000
							}
						}
					}
				}
				JOINT LeftShoulder
				{
					OFFSET 0.000000 0.000000 0.000000
					CHANNELS 3 Zrotation Yrotation Xrotation
					JOINT LeftArm
					{
						OFFSET 2.700000 1.550000 -0.730000
						CHANNELS 3 Zrotation Yrotation Xrotation
						JOINT LeftForeArm
						{
							OFFSET 5.450000 0.000000 0.000000
							CHANNELS 3 Zrotation Yrotation Xrotation
							JOINT LeftHand
							{
								OFFSET 3.450000 0.000000 0.000000
								CHANNELS 3 Zrotation Yrotation Xrotation
								JOINT LeftHandIndex1
								{
									OFFSET 0.750000 0.000000 0.000000
									CHANNELS 3 Zrotation Yrotation Xrotation
									End Site
									{
										OFFSET 0.000000 0.000000 0.000000
									}
								}
							}
						}
					}
				}
				JOINT RightShoulder
				{
					OFFSET 0.000000 0.000000 0.000000
					CHANNELS 3 Zrotation Yrotation Xrotation
					JOINT RightArm
					{
						OFFSET -2.700000 1.550000 -0.730000
						CHANNELS 3 Zrotation Yrotation Xrotation
						JOINT RightForeArm
						{
							OFFSET -5.450000 0.000000 0.000000
							CHANNELS 3 Zrotation Yrotation Xrotation
							JOINT RightHand
							{
								OFFSET -3.450000 0.000000 0.000000
								CHANNELS 3 Zrotation Yrotation Xrotation
								JOINT RightHandIndex1
								{
									OFFSET -0.750000 0.000000 0.000000
									CHANNELS 3 Zrotation Yrotation Xrotation
									End Site
									{
										OFFSET 0.000000 0.000000 0.000000
									}
								}
							}
						}
					}
				}
			}
		}
	}
}
MOTION
Frames: 11
Frame Time: 0.016667
-1.619950 16.027960 -3.082870 -5.222904 -24.605113 10.574943 -16.533668 8.839925 7.304426 26.077297 0.421469 -61.085150 -52.417568 34.160483 35.611975 1.839242 13.409531 0.139189 -0.033930 -0.137410 -0.049240 18.082820 -4.083993 5.745014 -49.544341 7.371745 -50.431265 58.333616 -23.079513 24.385237 -1.906349 -9.194310 1.131207 -0.265460 0.161790 0.283950 -2.358542 -5.634281 -11.446511 19.928272 -4.859489 49.710138 2.961455 5.411282 -7.465976 7.610581 -8.806383 -12.450510 -18.132136 13.107449 45.470904 -17.211750 6.217690 -26.331820 -25.573835 -3.559436 1.503295 -60.523754 17.937151 -14.921810 -7.423664 -3.079104 -2.016292 -3.668524 2.284545 0.896100 -0.199300 0.445310 0.125570 10.681660 18.175950 8.632420 52.524231 4.076500 -21.593700 -89.637703 62.907606 -61.547414 1.633478 1.072368 -0.187910 0.416250 0.241920 0.027150 
-1.623480 15.967450 -3.105910 -5.840718 -24.614986 9.779437 -16.565930 8.958409 7.242465 24.758971 0.330348 -62.129280 -47.651442 35.563357 40.688696 1.957650 13.866640 -0.005258 -0.036590 -0.125650 -0.084860 18.039805 -4.029212 5.758173 -50.714913 8.155797 -48.937807 61.335994 -21.958609 22.074549 -1.915013 -9.083940 1.179521 -0.289870 0.161530 0.310450 -2.230238 -5.762703 -11.495583 20.958460 -4.247308 51.903541 2.902611 7.164295 -7.823355 7.957902 -8.319156 -13.455993 -14.994826 12.454902 46.104882 -15.685340 7.007640 -24.680080 -22.876880 -2.286956 1.725949 -61.820702 21.391591 -16.476273 -6.432761 -1.088871 -1.980323 -3.730357 2.284754 0.866780 -0.189310 0.446290 0.135030 6.926863 18.896798 9.520105 53.472501 5.234648 -20.912822 -92.091180 54.157837 -59.368036 1.934202 0.066120 -0.140760 0.356280 0.237770 0.047540 
-1.620700 15.979090 -3.129820 -5.870606 -25.278757 7.787613 -16.538345 9.107132 7.122713 23.742408 0.446325 -61.380310 -43.880647 36.197009 44.395603 1.962085 14.247498 -0.104486 -0.061250 -0.164000 -0.091200 18.031247 -4.159048 5.674549 -50.470973 9.625522 -47.186521 61.597767 -21.401843 22.099892 -1.909362 -9.048602 1.203285 -0.288980 0.194950 0.273350 -2.242558 -5.661974 -11.427378 21.645575 -4.089865 54.426558 2.243403 7.802693 -6.317522 7.935566 -8.456551 -14.627416 -14.428877 11.911717 46.180416 -13.994120 6.203810 -25.004390 -20.825881 -3.676655 2.881572 -62.766259 23.372636 -17.955990 -5.590574 -2.613783 -1.918523 -3.719972 2.193805 0.905560 -0.195110 0.433990 0.135810 4.829285 21.451694 10.278565 52.400234 7.303684 -21.581798 -93.207317 48.071029 -57.084898 2.047355 -0.314464 -0.198740 0.423750 0.254430 0.034470 
-1.600840 16.041960 -3.155780 -5.191031 -25.219827 5.064953 -16.426429 9.324482 6.924128 21.918845 -0.129009 -59.738415 -40.245521 35.996791 47.515544 1.977812 14.451997 -0.197041 -0.009300 -0.103020 -0.074090 18.064180 -4.509319 5.526526 -49.507668 11.030155 -44.635228 59.550389 -20.864692 23.090035 -1.897937 -9.028532 1.187859 -0.266640 0.155870 0.294100 -2.370660 -5.351630 -11.246542 22.404961 -4.611035 56.251526 0.920154 7.386678 -3.997427 7.919455 -8.453345 -15.605738 -14.208683 11.439056 46.808844 -13.121740 5.249090 -25.787280 -18.770301 -5.818206 4.297944 -62.528399 24.488975 -18.774532 -5.507487 -3.072796 -1.941263 -3.675562 2.236743 0.914820 -0.219010 0.462500 0.142260 2.854023 23.636025 10.652669 51.590766 10.436644 -21.941957 -94.770485 44.541726 -57.159888 2.112715 -0.519969 -0.159200 0.396590 0.235770 0.038680 
-1.570640 16.131700 -3.168700 -4.601548 -24.824154 2.720886 -16.220763 9.445372 6.687615 19.819146 -0.757714 -57.916636 -36.088996 35.158333 50.410092 2.033390 14.562950 -0.231899 0.019460 -0.053980 -0.081720 18.170691 -5.048223 5.414532 -48.349434 12.168462 -42.251289 57.081972 -20.355132 24.072263 -1.858851 -9.003014 1.185124 -0.263270 0.153760 0.322440 -2.728516 -4.575707 -10.998549 24.122541 -5.861703 56.264050 -1.340769 6.335504 -1.124558 7.599942 -8.191426 -16.550449 -13.819012 10.889375 47.138355 -12.163400 4.624410 -23.993650 -16.024140 -8.351507 6.176388 -60.790774 25.959309 -19.610274 -8.633663 -2.347527 -2.492879 -3.651158 2.290804 0.862940 -0.207330 0.473700 0.169920 0.858998 25.077149 10.882190 50.724421 13.507310 -21.579067 -96.172559 45.884432 -61.132909 2.153165 -0.500628 -0.100200 0.356840 0.203070 0.076240 
-1.548400 16.271840 -3.167100 -4.452795 -24.325934 1.176349 -16.001943 9.581310 6.471764 18.406166 -1.154585 -55.587399 -32.972750 33.839452 51.750982 2.073825 14.442578 -0.191237 0.032720 -0.013640 -0.132450 18.284054 -5.663451 5.219640 -45.569771 13.000348 -40.276215 52.426104 -19.834003 25.914717 -1.763023 -8.890199 1.208334 -0.270480 0.179080 0.337440 -3.128946 -3.777505 -10.685568 26.283313 -7.361175 55.145967 -3.254326 5.394677 1.456734 7.081918 -9.058368 -17.643744 -16.623632 11.432246 46.936864 -9.663390 3.081730 -21.514790 -13.763863 -10.665420 7.953299 -59.296173 26.303731 -19.859111 -10.400723 -4.247247 -2.624742 -3.569077 2.404326 0.787960 -0.201440 0.464310 0.208590 0.090922 26.756028 11.266226 49.655614 14.730722 -21.370700 -100.660005 49.163448 -69.967437 2.232639 -0.377579 -0.033770 0.326210 0.179320 0.144590 
-1.538800 16.431660 -3.173250 -4.338790 -23.736047 -0.367793 -15.765723 9.720824 6.233700 17.219445 -1.207410 -52.749373 -30.271961 32.376086 52.282459 2.055380 14.152331 -0.139046 0.056230 0.057750 -0.158400 18.398878 -6.410889 4.974349 -41.841655 13.673231 -38.231713 46.709897 -19.129588 28.327789 -1.651077 -8.701082 1.246939 -0.260290 0.167790 0.337720 -3.545655 -2.755288 -10.386478 27.856749 -7.948024 53.781566 -5.124167 4.974702 3.654651 6.097537 -8.517435 -18.010996 -15.631495 10.810343 47.811153 -6.677070 2.180080 -20.558500 -10.276950 -11.854196 9.181485 -57.053442 26.115211 -19.847336 -12.463164 -5.224950 -2.783806 -3.495474 2.487562 0.734490 -0.210180 0.476020 0.223530 -1.403857 26.548152 11.182246 50.968015 17.169036 -20.221367 -102.037987 53.483998 -76.427605 2.302151 -0.123107 0.027370 0.292040 0.150650 0.189540 
-1.528040 16.624700 -3.166880 -3.836561 -22.652368 -1.599315 -15.547985 9.972318 5.985766 15.790307 -1.511752 -49.700978 -28.161082 30.549253 51.691494 1.911843 13.805250 -0.031707 -0.020020 -0.040880 -0.192560 18.478099 -7.218350 4.645587 -37.611932 13.619029 -36.024796 39.567022 -18.135508 31.031329 -1.460728 -8.376966 1.345451 -0.294220 0.249540 0.311870 -3.850615 -1.898928 -10.085154 28.562501 -7.776162 51.479906 -6.137305 4.622217 5.611060 5.220149 -7.544274 -18.471242 -13.726687 9.857713 48.941951 -5.302330 1.895680 -18.493050 -7.602785 -13.571370 10.313149 -54.910971 25.783444 -19.250748 -13.082354 -4.689202 -2.954849 -3.538899 2.400903 0.742810 -0.167350 0.431990 0.211950 -2.324686 26.675996 11.402965 52.441041 18.771204 -18.431880 -105.072534 59.238825 -86.564301 2.397206 0.440318 -0.038120 0.359780 0.200760 0.179570 
-1.513750 16.815520 -3.143420 -3.615924 -21.701537 -2.260341 -15.327689 10.233344 5.747083 14.154432 -1.743359 -47.478746 -24.368205 28.478504 52.456092 1.728591 13.500691 0.035773 -0.052400 -0.109190 -0.190190 18.561423 -8.096087 4.261818 -32.867129 13.157068 -34.158092 31.522228 -16.497034 33.495719 -1.232137 -7.855212 1.493689 -0.307900 0.305980 0.337250 -4.173453 -0.956165 -9.763550 29.655190 -7.140678 48.078732 -7.077055 4.428435 7.778424 4.622224 -6.277626 -18.289196 -11.091593 8.485319 49.712127 -5.440710 1.963590 -16.595710 -5.983688 -14.588495 10.879883 -50.968141 24.692296 -17.242496 -14.073615 -1.356031 -3.444862 -3.653208 2.337965 0.743800 -0.106410 0.394130 0.195660 -2.867931 26.020486 11.177039 52.509999 21.108097 -14.038158 -108.418486 65.208487 -98.233299 2.629057 1.148473 -0.073980 0.371010 0.240460 0.154820 
-1.483590 17.019210 -3.110400 -3.152810 -21.157739 -2.273834 -15.164123 10.651305 5.467622 12.082361 -2.124341 -45.480006 -19.775164 25.637288 52.920625 1.511657 12.912774 0.186792 -0.090040 -0.170250 -0.211650 18.592260 -8.865153 3.908494 -28.326212 12.197273 -32.988539 23.598542 -14.155240 34.937456 -0.975131 -7.069285 1.747646 -0.328300 0.358910 0.347590 -4.330586 -0.437210 -9.450166 29.309321 -5.686140 44.968907 -6.635913 4.562134 8.988313 3.872738 -5.526486 -18.389573 -9.904996 7.645916 50.691866 -4.536020 1.833870 -14.226280 -5.401781 -15.534258 11.592038 -48.124385 24.062372 -15.825888 -14.758668 -0.828028 -3.560622 -3.698902 2.334371 0.733820 -0.060750 0.355850 0.188930 -1.966953 25.856047 10.934548 51.310470 22.630509 -9.838465 -109.858760 69.674649 -106.630724 2.963763 1.715457 -0.099480 0.373190 0.270270 0.147480 
-1.462250 17.215040 -3.063640 -2.771846 -20.937566 -2.027730 -15.021018 11.143761 5.221767 10.056575 -2.343868 -43.900955 -14.496521 22.391493 53.485238 1.253003 12.123499 0.368070 -0.079910 -0.174890 -0.167430 18.599607 -9.682325 3.492098 -22.564538 10.832684 -31.920377 14.044901 -10.877964 35.925119 -0.730249 -5.932651 2.123183 -0.333700 0.314890 0.365730 -4.410875 0.012735 -9.138534 28.397127 -3.738608 41.666746 -6.179676 5.073234 9.511087 3.545113 -4.019512 -18.025130 -7.247167 5.794379 52.624691 -6.070340 2.368550 -13.872460 -4.582234 -15.534148 12.083105 -45.008872 23.522389 -14.486648 -15.116284 -1.878392 -3.373447 -3.676952 2.362429 0.752840 -0.060120 0.376310 0.168960 -2.323197 24.389972 10.082576 52.931005 24.527032 -6.229022 -104.205841 76.336890 -104.696768 3.594229 4.607235 -0.094490 0.334220 0.260230 0.114460 
